<?xml version="1.0" standalone="no"?><!DOCTYPE svg PUBLIC "-//W3C//DTD SVG 1.1//EN" "http://www.w3.org/Graphics/SVG/1.1/DTD/svg11.dtd"><svg t="1627803021084" class="icon" viewBox="0 0 1024 1024" version="1.1" xmlns="http://www.w3.org/2000/svg" p-id="108924" xmlns:xlink="http://www.w3.org/1999/xlink" width="200" height="200"><defs><style type="text/css"></style></defs><path d="M512.4 172c-28.967-0.004-55.084 17.444-66.169 44.206-11.085 26.762-4.956 57.567 15.53 78.047 20.486 20.48 51.292 26.601 78.051 15.508 26.76-11.092 44.2-37.214 44.188-66.181-0.017-39.533-32.067-71.574-71.6-71.58z m-0.4 268c-39.765 0-72 32.235-72 72s32.235 72 72 72 72-32.235 72-72-32.235-72-72-72z m0 268c-39.765 0-72 32.235-72 72s32.235 72 72 72 72-32.235 72-72-32.235-72-72-72z" p-id="108925"></path></svg>